<svg xmlns="http://www.w3.org/2000/svg" viewBox="0 0 512 512" width="512" height="512">
  <clipPath id="frame"><rect width="512" height="512"/></clipPath>
  <g clip-path="url(#frame)">
    <rect width="512" height="512" fill="#F4944B"/>
    <circle cx="600" cy="20"  r="365" fill="#E47563"/>
    <circle cx="40"  cy="585" r="300" fill="#FFE566"/>
    <path transform="translate(78.736 373.887) scale(0.50566 -0.50566)" d="M288 -20Q213 -20 161.0 4.5Q109 29 77.0 68.5Q45 108 30.0 154.0Q15 200 15 243Q15 322 50.0 382.0Q85 442 147.0 476.0Q209 510 289 510Q351 510 395.0 490.0Q439 470 466.5 439.0Q494 408 507.0 373.0Q520 338 520 308Q520 251 492.0 221.0Q464 191 420 191H207Q211 175 223.5 163.5Q236 152 255.0 145.5Q274 139 296 139Q318 139 335.0 141.5Q352 144 364.5 148.0Q377 152 387.5 156.0Q398 160 406.5 162.5Q415 165 423 165Q441 165 456.0 153.0Q471 141 483 117Q490 104 493.0 92.5Q496 81 496 71Q496 41 471.5 21.0Q447 1 401.0 -9.5Q355 -20 288 -20ZM207 285H319Q333 285 339.5 291.0Q346 297 346 309Q346 322 338.5 331.0Q331 340 318.0 344.5Q305 349 287 349Q263 349 245.0 339.5Q227 330 217.5 315.5Q208 301 207 285Z" fill="#FFFFFF"/>
    <rect x="356" y="300" width="96" height="96" rx="30" fill="#FFE566"/>
  </g>
</svg>